<svg width="1515" height="500" viewBox="0 0 1515 500" fill="none" xmlns="http://www.w3.org/2000/svg">
<path fill-rule="evenodd" clip-rule="evenodd" d="M466.874 189.369C474.407 189.369 480.871 186.722 486.267 181.428C491.662 176.133 494.359 169.719 494.359 162.185C494.359 154.65 491.662 148.236 486.267 142.942C480.871 137.647 474.407 135 466.874 135C459.545 135 453.234 137.647 447.94 142.942C442.647 148.236 440 154.65 440 162.185C440 169.719 442.647 176.133 447.94 181.428C453.234 186.722 459.545 189.369 466.874 189.369ZM490.389 360.418V208.612H443.97V360.418H490.389ZM660.873 343.161C648.352 354.666 632.014 360.418 611.858 360.418H524.517V143.858H605.445C626.415 143.858 642.906 149.254 654.918 160.046C666.93 170.839 672.936 184.788 672.936 201.892C672.936 212.685 669.933 222.357 663.927 230.91C657.921 239.462 650.337 245.266 641.176 248.32C651.762 250.764 660.822 256.516 668.355 265.578C675.888 274.639 679.655 285.788 679.655 299.024C679.655 316.943 673.394 331.656 660.873 343.161ZM597.81 230.604H571.547V183.871H597.2C606.361 183.871 613.385 185.958 618.272 190.133C623.158 194.307 625.601 199.958 625.601 207.085C625.601 214.416 623.107 220.168 618.119 224.343C613.131 228.517 606.361 230.604 597.81 230.604ZM571.547 321.016H601.781C611.146 321.016 618.475 318.725 623.769 314.143C629.062 309.562 631.709 303.402 631.709 295.664C631.709 288.13 629.062 282.021 623.769 277.337C618.475 272.654 611.146 270.312 601.781 270.312H571.547V321.016ZM755.926 363.778C764.273 363.778 772.214 362.2 779.746 359.044C787.279 355.888 792.878 351.255 796.543 345.146C796.543 351.662 796.95 356.753 797.764 360.418H842.351C841.333 352.273 840.824 343.212 840.824 333.234V208.612H794.405V295.053C794.405 302.791 792.115 309.053 787.534 313.838C782.953 318.623 776.794 321.016 769.058 321.016C761.118 321.016 755.061 318.572 750.887 313.685C746.713 308.798 744.627 302.486 744.627 294.748V208.612H698.207V304.522C698.207 321.423 703.348 335.525 713.629 346.826C723.911 358.128 738.01 363.778 755.926 363.778ZM990.237 349.422C977.512 359.807 961.581 365 942.443 365C919.641 365 900.35 357.415 884.572 342.244C868.793 327.074 860.904 307.882 860.904 284.668C860.904 261.251 868.59 241.957 883.961 226.786C899.332 211.616 918.317 204.031 940.916 204.031C960.665 204.031 976.851 209.121 989.473 219.303C1002.1 229.484 1010.24 242.008 1013.9 256.873L972.371 269.396C970.539 262.88 967.078 257.483 961.988 253.207C956.898 248.931 950.18 246.793 941.832 246.793C931.856 246.793 923.56 250.153 916.943 256.873C910.326 263.592 907.018 272.857 907.018 284.668C907.018 296.275 910.428 305.438 917.249 312.158C924.069 318.878 932.467 322.238 942.443 322.238C950.791 322.238 957.662 320.049 963.057 315.671C968.452 311.293 972.066 305.947 973.898 299.635L1014.82 312.158C1011.16 326.616 1002.96 339.037 990.237 349.422ZM1080.1 360.418V323.154L1095.06 306.965L1130.79 360.418H1187.6L1127.13 272.45L1186.37 208.612H1126.21L1080.1 259.622V139.276H1033.68V360.418H1080.1ZM1307.54 351.408C1295.32 360.469 1280.05 365 1261.73 365C1239.74 365 1221.06 357.669 1205.69 343.008C1190.32 328.347 1182.63 308.696 1182.63 284.057C1182.63 260.436 1190.11 241.193 1205.08 226.328C1220.04 211.463 1237.81 204.031 1258.37 204.031C1281.99 204.031 1300.56 210.903 1314.1 224.648C1327.64 238.393 1334.41 257.483 1334.41 281.919C1334.41 289.657 1334.11 294.442 1333.5 296.275H1227.83C1228.24 304.624 1231.8 311.598 1238.52 317.198C1245.24 322.798 1253.18 325.598 1262.34 325.598C1278.02 325.598 1288.2 318.98 1292.88 305.744L1331.66 316.74C1327.79 330.79 1319.75 342.346 1307.54 351.408ZM1289.52 266.341H1228.75C1229.36 259.825 1232.31 253.92 1237.6 248.625C1242.9 243.331 1250.02 240.684 1258.98 240.684C1268.96 240.684 1276.44 243.229 1281.43 248.32C1286.41 253.411 1289.11 259.418 1289.52 266.341ZM1439.39 358.891C1433.69 361.742 1425.65 363.167 1415.26 363.167C1399.59 363.167 1387.22 358.789 1378.16 350.033C1369.1 341.277 1364.57 329.365 1364.57 314.296V249.236H1337.69V208.612H1345.33C1353.07 208.612 1358.92 206.321 1362.89 201.74C1366.86 197.158 1368.84 191.202 1368.84 183.871V164.323H1410.38V208.612H1440V249.236H1410.38V306.049C1410.38 316.638 1415.98 321.932 1427.17 321.932C1430.84 321.932 1434.91 321.423 1439.39 320.405V358.891Z" fill="#FBFCFD"/>
<path fill-rule="evenodd" clip-rule="evenodd" d="M339.563 204.055C339.563 204.055 338.953 209.661 338.503 212.361L317.33 377.614C314.538 395.015 285.216 425 207.5 425C129.784 425 99.9988 394.88 97.7594 377.362L77.1366 217.385C76.7416 216.036 76.5404 214.646 76.538 213.251C76.538 213.115 76.4536 212.064 76.4536 212.064C76.0366 209.533 75.7085 206.977 75.4693 204.396C75.1522 200.891 75.0046 197.627 75 194.328C75 128.265 134.322 75 207.5 75C280.678 75 340 128.265 340 194.328C340 197.604 339.563 204.055 339.563 204.055ZM207.684 250C260.407 250 295.786 239.314 295.786 226.132C295.786 212.95 251.243 201.52 207.684 201.52C164.125 201.52 119.12 212.95 119.12 226.132C119.12 239.314 154.963 250 207.684 250ZM123.971 181.165C119.37 182.431 116.294 180.15 117.206 175.968C117.206 175.968 124.826 111.514 207.938 111.514C291.049 111.514 298.179 175.968 298.179 175.968C299.177 180.162 295.987 182.461 291.317 181.131C291.317 181.131 249.847 168.124 207.938 168.124C166.028 168.124 123.971 181.165 123.971 181.165Z" fill="#4476FF"/>
</svg>
